<svg width="357" height="134" viewBox="0 0 357 134" fill="none" xmlns="http://www.w3.org/2000/svg">
<path d="M0.820068 79.46V91.16H208.22L220.6 56.27L251.94 133.31L272.73 77.67H356.8V64.37H259.58L249.49 90.35L220.75 18.51L197.32 79.46H0.820068Z" fill="white"/>
<path d="M307.32 0.769989C292.97 0.769989 281.34 12.4 281.34 26.75C281.34 41.1 292.97 52.73 307.32 52.73C321.67 52.73 333.3 41.1 333.3 26.75C333.3 12.4 321.66 0.769989 307.32 0.769989ZM321.46 40.4L312.4 35.37V45.73H302.23V35.37L293.17 40.4L288.24 31.51L296.84 26.74L288.24 21.97L293.17 13.08L302.23 18.11V7.75H312.4V18.11L321.46 13.08L326.39 21.97L317.79 26.74L326.39 31.51L321.46 40.4Z" fill="white"/>
<path d="M31.67 18C31.67 27.89 25.3599 33.55 16.7899 33.55C8.00995 33.55 2.44995 27.18 2.44995 18.53C2.44995 9.46001 8.47995 3.05 17.25 3.05C26.32 3.04 31.67 9.55001 31.67 18ZM8.44995 18.41C8.44995 24.44 11.65 29.23 17.08 29.23C22.56 29.23 25.67 24.38 25.67 18.2C25.67 12.63 22.76 7.36 17.09 7.36C11.4799 7.36 8.44995 12.34 8.44995 18.41Z" fill="white"/>
<path d="M36.54 33.06V3.51999H43.03L51.06 16.2C53.11 19.46 54.9201 22.89 56.3501 26.1L56.4601 26.07C56.0601 22.15 55.95 18.34 55.95 13.83V3.51999H61.2V33.06H55.31L47.2 20.07C45.22 16.83 43.1501 13.23 41.6301 9.88L41.48 9.91C41.71 13.75 41.78 17.65 41.78 22.5V33.07H36.54V33.06Z" fill="white"/>
<path d="M85.12 19.96H73.4V28.63H86.5V33.07H67.72V3.53H85.82V7.97H73.4V15.56H85.12V19.96Z" fill="white"/>
<path d="M3.23999 43.05C5.21999 42.66 8.05999 42.44 10.76 42.44C14.95 42.44 17.65 43.18 19.54 44.85C21.07 46.16 21.93 48.18 21.93 50.46C21.93 54.36 19.41 56.95 16.21 58V58.13C18.55 58.92 19.95 61.02 20.67 64.09C21.66 68.21 22.38 71.06 23.01 72.2H18.96C18.46 71.37 17.79 68.83 16.93 65.14C16.03 61.06 14.41 59.53 10.85 59.4H7.16V72.2H3.23999V43.05ZM7.14999 56.51H11.16C15.35 56.51 18 54.28 18 50.9C18 47.09 15.16 45.42 11.02 45.38C9.13 45.38 7.77999 45.56 7.14999 45.73V56.51Z" fill="white"/>
<path d="M43.16 58.35H31.3699V69H44.5099V72.2H27.45V42.66H43.84V45.86H31.3699V55.19H43.16V58.35Z" fill="white"/>
<path d="M49.0601 67.55C50.8201 68.6 53.3801 69.48 56.0801 69.48C60.0901 69.48 62.4301 67.42 62.4301 64.44C62.4301 61.68 60.8101 60.1 56.7101 58.57C51.7601 56.86 48.7001 54.36 48.7001 50.2C48.7001 45.6 52.6201 42.18 58.5101 42.18C61.6201 42.18 63.8701 42.88 65.2201 43.63L64.1401 46.74C63.1501 46.21 61.1201 45.34 58.3801 45.34C54.2401 45.34 52.6601 47.75 52.6601 49.77C52.6601 52.53 54.5101 53.89 58.6901 55.47C63.8201 57.4 66.4301 59.81 66.4301 64.15C66.4301 68.71 62.9601 72.65 55.8101 72.65C52.8801 72.65 49.6901 71.82 48.0701 70.77L49.0601 67.55Z" fill="white"/>
<path d="M71.79 43.01C73.68 42.7 76.16 42.44 79.31 42.44C83.18 42.44 86.0201 43.32 87.8201 44.89C89.4901 46.29 90.48 48.44 90.48 51.07C90.48 53.74 89.67 55.85 88.14 57.38C86.07 59.53 82.69 60.62 78.87 60.62C77.7 60.62 76.62 60.58 75.72 60.36V72.19H71.8V43.01H71.79ZM75.7101 57.25C76.5601 57.47 77.65 57.56 78.95 57.56C83.68 57.56 86.56 55.33 86.56 51.25C86.56 47.35 83.72 45.47 79.4 45.47C77.69 45.47 76.3801 45.6 75.7101 45.78V57.25Z" fill="white"/>
<path d="M121.66 57.12C121.66 67.29 115.31 72.68 107.57 72.68C99.5599 72.68 93.9299 66.63 93.9299 57.69C93.9299 48.31 99.9199 42.18 108.02 42.18C116.31 42.17 121.66 48.35 121.66 57.12ZM98.1199 57.6C98.1199 63.91 101.63 69.56 107.8 69.56C114.01 69.56 117.52 63.99 117.52 57.29C117.52 51.42 114.37 45.28 107.84 45.28C101.36 45.29 98.1199 51.11 98.1199 57.6Z" fill="white"/>
<path d="M126.75 72.19V42.65H131.03L140.75 57.59C143 61.05 144.76 64.16 146.2 67.19L146.29 67.15C145.93 63.21 145.84 59.61 145.84 55.01V42.65H149.53V72.19H145.57L135.94 57.2C133.82 53.91 131.8 50.54 130.27 47.34L130.13 47.38C130.36 51.11 130.45 54.65 130.45 59.56V72.18H126.75V72.19Z" fill="white"/>
<path d="M155.83 67.55C157.59 68.6 160.15 69.48 162.85 69.48C166.86 69.48 169.2 67.42 169.2 64.44C169.2 61.68 167.58 60.1 163.48 58.57C158.53 56.86 155.47 54.36 155.47 50.2C155.47 45.6 159.39 42.18 165.28 42.18C168.39 42.18 170.64 42.88 171.99 43.63L170.91 46.74C169.92 46.21 167.89 45.34 165.15 45.34C161.01 45.34 159.43 47.75 159.43 49.77C159.43 52.53 161.28 53.89 165.46 55.47C170.59 57.4 173.2 59.81 173.2 64.15C173.2 68.71 169.73 72.65 162.58 72.65C159.65 72.65 156.46 71.82 154.84 70.77L155.83 67.55Z" fill="white"/>
<path d="M194.27 58.35H182.48V69H195.62V72.2H178.56V42.66H194.94V45.86H182.47V55.19H194.26V58.35H194.27Z" fill="white"/>
<path d="M308 34.89L308.12 27.53H307.2L307.07 27.54L307.18 34.89H308Z" fill="white"/>
<path d="M308.48 30.14L308.32 30.12L308.3 31.05L308.44 31.06C308.81 31.1 309.68 31.28 309.68 32.09C309.68 32.39 309.59 32.63 309.42 32.79C309.08 33.11 308.5 33.1 308.43 33.09L308.28 33.08L308.27 33.9L308.44 33.88C308.49 33.87 308.56 33.87 308.62 33.86C309.25 33.81 310.43 33.73 310.43 32.08C310.42 30.42 308.68 30.17 308.48 30.14Z" fill="white"/>
<path d="M306.82 14.89L306.66 15.01L306.63 15.05C306.6 15.1 306.58 15.15 306.58 15.21V15.27C306.58 15.43 306.71 15.55 306.86 15.55H308.33C308.49 15.55 308.61 15.42 308.61 15.27V15.21C308.61 15.15 308.59 15.1 308.56 15.05L308.35 14.89L308.57 14.65C308.73 14.44 308.81 14.19 308.81 13.92C308.81 13.25 308.26 12.7 307.59 12.7C306.91 12.7 306.37 13.25 306.37 13.92C306.37 14.18 306.45 14.43 306.62 14.66L306.82 14.89Z" fill="white"/>
<path d="M307.21 36.59C307.24 38.66 307.26 39.94 307.26 40.04C307.26 40.54 307.48 40.68 307.52 40.7L307.59 40.73L307.66 40.7C307.7 40.68 307.92 40.54 307.92 40.04C307.92 39.94 307.94 38.52 307.97 36.59V36.44H307.2L307.21 36.59Z" fill="white"/>
<path d="M307.14 16.33C307.46 16.33 307.79 16.4 308.09 16.53L308.3 16.62L308.32 15.74H306.89L306.9 16.33H307.14Z" fill="white"/>
<path d="M308.4 35.12C308.3 35.11 308.21 35.11 308.13 35.11H307.09C307 35.11 306.91 35.1 306.83 35.08C306.58 35.01 306.46 34.84 306.46 34.54C306.46 34.35 306.54 34.2 306.72 34.1C306.72 34.1 306.77 34.07 306.82 34.06L306.93 34.03L306.91 33.03H306.61V33.09C306.18 33.19 305.54 33.72 305.54 34.6C305.54 35.51 306.18 36.11 306.78 36.21C306.98 36.24 307.16 36.23 307.35 36.22C307.51 36.22 307.67 36.21 307.83 36.21C308.02 36.2 308.2 36.2 308.37 36.2H308.58C309.07 36.2 309.31 36.45 309.31 36.98C309.31 37.64 308.83 38.32 308.83 38.32L308.58 38.67L308.99 38.55C309.23 38.48 309.98 37.41 309.98 36.37C309.99 35.63 309.42 35.19 308.4 35.12Z" fill="white"/>
<path d="M307.1 18.63L306.92 18.6L306.97 21.76H307.12C307.45 21.76 307.76 21.76 308.05 21.77L308.2 21.78L308.25 18.83V18.68H308.1C307.77 18.68 307.41 18.69 307.1 18.63Z" fill="white"/>
<path d="M308.14 26.15L308.19 23.16L308.04 23.15C307.86 23.14 307.68 23.14 307.48 23.14H307L307.05 26L307.06 26.15H308.14Z" fill="white"/>
<path d="M308.6 22.05C308.43 22.04 308.25 22.02 308.06 22.02C307.89 22.01 307.71 22.01 307.52 22.01H305.86C305.84 22.01 303.57 21.98 303.57 19.75C303.57 17.91 305.12 17.71 305.78 17.71C305.95 17.71 306.12 17.82 306.33 17.96L306.46 18.04C306.6 18.13 306.79 18.24 307.02 18.32C307.31 18.43 307.6 18.48 307.92 18.48C307.99 18.48 308.06 18.48 308.12 18.48C308.3 18.47 308.68 18.46 308.79 18.14C308.81 18.08 308.82 18.02 308.82 17.96C308.82 17.9 308.82 17.82 308.8 17.74C308.74 17.37 308.54 17.07 308.21 16.87C307.92 16.69 307.53 16.59 307.04 16.56C306.87 16.55 306.68 16.55 306.5 16.56C304.71 16.65 302.81 17.55 302.81 19.84C302.81 22.27 304.94 22.91 306.2 22.91H306.61C306.75 22.91 306.88 22.91 307 22.91C307.36 22.91 307.71 22.91 308.04 22.93C308.21 22.94 308.39 22.95 308.57 22.97C308.7 22.98 308.84 23 308.97 23.02C310.06 23.19 311.07 23.52 311.07 24.83C311.07 26.14 310.36 26.4 309.12 26.4H307.2C307.04 26.4 306.83 26.44 306.62 26.52C306.18 26.68 305.15 27.19 305.15 28.61C305.15 29.8 305.67 30.58 306.68 30.92L306.88 30.99L306.86 30L306.74 29.98C306.59 29.95 305.86 29.76 305.86 28.59C305.86 27.98 306.15 27.57 306.71 27.4C306.9 27.34 307.09 27.32 307.21 27.31C307.27 27.31 307.33 27.31 307.36 27.31H309.46C310.01 27.31 311.82 27.13 311.82 24.85C311.82 23.09 310.83 22.24 308.6 22.05Z" fill="white"/>
</svg>
